<?xml version="1.0" encoding="utf-8"?><svg viewBox="0 0 502.66 502.66" xmlns="http://www.w3.org/2000/svg" xmlns:xlink="http://www.w3.org/1999/xlink"><style>:root>svg{display:none}:root>svg:target{display:block}</style><svg viewBox="0 0 30 30" id="fb" xmlns="http://www.w3.org/2000/svg"><path fill-rule="evenodd" clip-rule="evenodd" d="M15 0C6.716 0 0 6.716 0 15c0 8.284 6.716 15 15 15 8.284 0 15-6.716 15-15 0-8.284-6.716-15-15-15zm1.564 15.659v8.16h-3.377v-8.16H11.5v-2.812h1.687v-1.688c0-2.295.953-3.659 3.659-3.659h2.253v2.813H17.69c-1.053 0-1.123.393-1.123 1.126l-.003 1.408h2.55l-.298 2.812h-2.252z"/></svg><svg viewBox="0 0 502.664 502.664" id="icon" xmlns="http://www.w3.org/2000/svg"><path d="M153.821 358.226L0 274.337v-46.463l153.821-83.414v54.574L46.636 250.523l107.185 53.431v54.272zm26.273 29.358L282.103 115.08h32.227L212.084 387.584h-31.99zm168.749-29.358v-54.272l107.164-52.999-107.164-52.59v-53.927l153.821 83.522v46.183l-153.821 84.083z"/></svg><svg viewBox="0 0 30 30" id="in" xmlns="http://www.w3.org/2000/svg"><path fill-rule="evenodd" clip-rule="evenodd" d="M15 0C6.716 0 0 6.716 0 15c0 8.284 6.716 15 15 15 8.284 0 15-6.716 15-15 0-8.284-6.716-15-15-15zm-3.298 7.048C12.555 7.01 12.828 7 15.001 7h-.003c2.174 0 2.445.01 3.299.048.851.04 1.433.174 1.943.372.527.204.972.478 1.417.923.445.444.718.89.923 1.417.197.508.332 1.09.372 1.941.038.854.048 1.126.048 3.3 0 2.172-.01 2.444-.048 3.297-.04.852-.175 1.433-.372 1.942a3.927 3.927 0 01-.923 1.417c-.445.445-.89.719-1.416.923-.51.198-1.091.333-1.943.372-.854.039-1.125.048-3.298.048s-2.445-.01-3.299-.048c-.851-.04-1.433-.174-1.942-.372a3.918 3.918 0 01-1.416-.923 3.92 3.92 0 01-.923-1.417c-.198-.509-.332-1.09-.372-1.942C7.01 17.445 7 17.173 7 15s.01-2.445.048-3.299c.038-.851.173-1.433.372-1.941a3.92 3.92 0 01.923-1.417A3.918 3.918 0 019.76 7.42c.509-.198 1.09-.333 1.942-.372z"/><path fill-rule="evenodd" clip-rule="evenodd" d="M14.283 8.442h.718c2.136 0 2.389.007 3.232.046.78.035 1.204.166 1.486.275.373.145.64.319.92.599.28.28.453.546.598.92.11.281.24.705.275 1.485.039.843.047 1.096.047 3.231s-.008 2.389-.047 3.232c-.035.78-.166 1.203-.275 1.485a2.47 2.47 0 01-.599.919c-.28.28-.546.453-.92.598-.28.11-.704.24-1.485.276-.843.038-1.096.047-3.232.047s-2.39-.009-3.233-.047c-.78-.036-1.203-.166-1.485-.276a2.478 2.478 0 01-.92-.598 2.48 2.48 0 01-.6-.92c-.109-.281-.24-.705-.275-1.485-.038-.843-.046-1.096-.046-3.233 0-2.136.008-2.388.046-3.231.036-.78.166-1.204.276-1.486.145-.373.319-.64.599-.92.28-.28.546-.453.92-.598.282-.11.705-.24 1.485-.276.738-.034 1.024-.044 2.515-.045v.002zm4.988 1.328a.96.96 0 100 1.92.96.96 0 000-1.92zM10.893 15a4.109 4.109 0 118.217 0 4.109 4.109 0 01-8.217 0z"/><path fill-rule="evenodd" clip-rule="evenodd" d="M15 12.334a2.667 2.667 0 110 5.333 2.667 2.667 0 010-5.334z"/></svg><svg viewBox="0 0 3 13" id="tooltip-icon" xmlns="http://www.w3.org/2000/svg"><path d="M1.549 1.87c-.594 0-.89-.28-.89-.84 0-.55.296-.824.89-.824.593 0 .89.275.89.824 0 .56-.297.84-.89.84zm0 10.214c-.448 0-.672-.246-.672-.74v-6.87c0-.482.224-.723.672-.723.459 0 .689.24.689.722v6.872c0 .492-.23.739-.69.739z"/></svg></svg>